<?xml version="1.0" encoding="UTF-8"?>
<svg width="362px" height="116px" viewBox="0 0 362 116" version="1.1" xmlns="http://www.w3.org/2000/svg" xmlns:xlink="http://www.w3.org/1999/xlink">
    <!-- Generator: Sketch 55.2 (78181) - https://sketchapp.com -->
    <title>ChathamFinancial-Logo-Primary-POSITIVE-RGB</title>
    <desc>Created with Sketch.</desc>
    <g id="Page-1" stroke="none" stroke-width="1" fill="none" fill-rule="evenodd">
        <g id="ChathamFinancial-Logo-Primary-POSITIVE-RGB" fill-rule="nonzero">
            <g id="Group" fill="#004578">
                <path d="M48.4,13.9 C48.4,11.5 47.4,9.7 45.9,8.5 C43,6 38.2,5.5 35.4,5.5 C27.3,5.5 14.8,7.3 14.8,32.4 C14.8,47.8 20.1,58.5 35.7,58.5 C39,58.5 43.5,58 45.9,55.1 C47.1,53.8 47.8,52 47.8,49.5 L49.7,49.5 C49.5,52.2 49.3,55 49.3,59.4 L49.3,61 C45.1,62.4 38.5,63 33.7,63 C22.1,63 12.4,59.7 6.7,52.6 C3,48 0.9,41.6 0.9,33.6 C0.9,17.6 9.9,7.6 21.8,3.3 C26.5,1.6 32.3,1.3 35.8,1.3 C42.9,1.3 49.5,2.3 50.3,2.3 C50.1,4.1 50.1,6.2 50.1,8 C50.1,10.4 50.2,12.7 50.3,13.9 L48.4,13.9 Z" id="Path"></path>
                <path d="M95.3,62.1 C89.3,62.1 84.3,62.4 84.3,62.4 L84.3,60.3 C87,59.9 87.9,58.5 88.7,57 C89.5,55.5 89.8,51.8 89.8,43.1 C89.8,38.6 89.7,34.5 89.5,32.1 C89.1,28.2 87.4,23.8 80.4,23.8 C75.1,23.8 72.6,26.2 72.6,26.2 L72.6,48.5 C72.6,55.3 72.9,56.7 74,58.3 C74.9,59.5 76.5,60.2 77.9,60.4 L77.9,62.5 C77.9,62.5 73.2,62.2 67.3,62.2 C61.3,62.2 55.9,62.5 55.9,62.5 L55.9,60.4 C56.9,60.4 58.9,59.9 60.3,58.3 C61.8,56.5 61.9,53.9 61.9,45.8 L61.9,16.7 C61.9,10.8 61.8,8.4 60.9,7 C59.7,5.2 57.3,5.1 56,5 L56,2.7 C56,2.7 61.4,2.7 66.9,1.8 C70.6,1.2 72.5,0.4 72.5,0.4 L73.1,0.8 C73,2.3 72.8,7.5 72.8,17.5 L72.8,23.6 C72.8,23.6 76.1,18.1 86.2,18.1 C94.2,18.1 98.3,22.2 99.7,26.7 C100.5,29.1 100.6,33.1 100.6,36.1 L100.6,48.4 C100.6,55.1 100.9,56.7 102.1,58.2 C102.9,59.1 104.4,60 106.3,60.2 L106.3,62.3 C106.2,62.4 101.8,62.1 95.3,62.1 Z" id="Path"></path>
                <path d="M225.1,62.1 C219.1,62.1 214.1,62.4 214.1,62.4 L214.1,60.3 C216.8,59.9 217.7,58.5 218.5,57 C219.3,55.5 219.6,51.8 219.6,43.1 C219.6,38.6 219.5,34.5 219.3,32.1 C218.9,28.2 217.2,23.8 210.2,23.8 C204.9,23.8 202.4,26.2 202.4,26.2 L202.4,48.5 C202.4,55.3 202.7,56.7 203.8,58.3 C204.7,59.5 206.3,60.2 207.7,60.4 L207.7,62.5 C207.7,62.5 203,62.2 197.1,62.2 C191.1,62.2 185.7,62.5 185.7,62.5 L185.7,60.4 C186.7,60.4 188.7,59.9 190.1,58.3 C191.6,56.5 191.7,53.9 191.7,45.8 L191.7,16.7 C191.7,10.8 191.6,8.4 190.7,7 C189.5,5.2 187.1,5.1 185.8,5 L185.8,2.7 C185.8,2.7 191.2,2.7 196.7,1.8 C200.4,1.2 202.3,0.4 202.3,0.4 L202.9,0.8 C202.8,2.3 202.6,7.5 202.6,17.5 L202.6,23.6 C202.6,23.6 205.9,18.1 216,18.1 C224,18.1 228.1,22.2 229.5,26.7 C230.3,29.1 230.4,33.1 230.4,36.1 L230.4,48.4 C230.4,55.1 230.7,56.7 231.9,58.2 C232.7,59.1 234.2,60 236.1,60.2 L236.1,62.3 C236,62.4 231.6,62.1 225.1,62.1 Z" id="Path"></path>
                <path d="M141.6,62.9 C135.9,62.9 134.7,59.2 134.4,57.1 C134.4,57.1 131.1,62.9 122.5,62.9 C111.9,62.9 109.7,55.9 109.7,51.3 C109.7,47.1 111.3,42.3 116.9,40.3 C120.8,38.8 126.1,38.5 134,38.5 L134,36.4 C134,32.6 133.9,29.7 133.1,27.8 C131.7,24.7 129.2,23.8 125.7,23.8 C121.8,23.8 118.7,25.4 116.6,29 L113.8,27.2 C114.4,25.7 117.7,18.1 129.5,18.1 C137.8,18.1 141.4,20.9 143.3,24.6 C144.7,27.3 144.8,30 144.8,36.3 C144.8,39.3 144.5,44 144.5,51.3 C144.5,54 144.9,56.4 147.8,56.4 C149.3,56.4 150.1,55.8 150.5,55.6 L151.6,57.4 C149.1,60.9 146.4,62.9 141.6,62.9 Z M134.1,42 C132,42 127.2,42.2 124.6,43.3 C122.1,44.4 120.5,46.6 120.5,50.1 C120.5,54.7 123.2,57 127.5,57 C131.2,57 133.1,55.5 134.1,54.9 L134.1,42 Z" id="Shape"></path>
                <path d="M170.3,63 C162.7,63 159.6,59.7 158.4,55.1 C157.9,53 157.7,50.4 157.7,46.1 C157.7,32.8 157.8,27.5 157.9,23.2 L152.2,23.2 L152.2,21.1 C153,20.8 156.2,19.5 158.8,17.2 C162.3,14.1 165.5,9.2 166.2,8.1 L168.5,8.1 L168.5,19 L182.6,19 L182.6,23.3 L168.5,23.3 L168.5,47 C168.5,52.9 169,57.9 176.4,57.9 C179.7,57.9 181.9,56.6 181.9,56.6 L182.9,58.6 C181.9,59.6 178.1,63 170.3,63 Z" id="Path"></path>
                <path d="M270.5,62.9 C264.8,62.9 263.6,59.2 263.3,57.1 C263.3,57.1 260,62.9 251.4,62.9 C240.8,62.9 238.6,55.9 238.6,51.3 C238.6,47.1 240.2,42.3 245.8,40.3 C249.7,38.8 255,38.5 262.9,38.5 L262.9,36.4 C262.9,32.6 262.8,29.7 262,27.8 C260.6,24.7 258.1,23.8 254.6,23.8 C250.7,23.8 247.6,25.4 245.5,29 L242.7,27.2 C243.3,25.7 246.6,18.1 258.4,18.1 C266.7,18.1 270.3,20.9 272.2,24.6 C273.6,27.3 273.7,30 273.7,36.3 C273.7,39.3 273.4,44 273.4,51.3 C273.4,54 273.8,56.4 276.7,56.4 C278.2,56.4 279,55.8 279.4,55.6 L280.5,57.4 C277.9,60.9 275.3,62.9 270.5,62.9 Z M262.9,42 C260.8,42 256,42.2 253.4,43.3 C250.9,44.4 249.3,46.6 249.3,50.1 C249.3,54.7 252,57 256.3,57 C260,57 261.9,55.5 262.9,54.9 L262.9,42 Z" id="Shape"></path>
                <path d="M350.1,62.1 C344.1,62.1 339.1,62.4 339.1,62.4 L339.1,60.3 C341.8,59.9 342.7,58.5 343.5,57 C344.3,55.5 344.6,51.9 344.6,43.2 C344.6,38.7 344.5,34.6 344.3,32.1 C344,28.5 342.5,23.9 335.2,23.9 C329.2,23.9 326.6,26.6 326.6,26.6 C326.6,26.6 327.7,29 327.7,36.2 L327.7,48.5 C327.7,55.3 328,56.7 329.1,58.3 C330,59.5 331.5,60.2 332.9,60.4 L332.9,62.5 C332.9,62.5 328.8,62.2 322.6,62.2 C316.3,62.2 311.6,62.5 311.6,62.5 L311.6,60.4 C314.3,60 315.1,58.6 315.9,57.1 C316.7,55.6 317,51.9 317,43.2 C317,38.7 317,34.6 316.7,32.1 C316.4,28.6 314.8,23.9 307.7,23.9 C302.5,23.9 300.1,26.3 300.1,26.3 L300.1,48.6 C300.1,55.4 300.4,56.8 301.5,58.4 C302.4,59.6 304,60.3 305.4,60.5 L305.4,62.6 C305.4,62.6 300.9,62.3 294.9,62.3 C289.2,62.3 283.5,62.6 283.5,62.6 L283.5,60.5 C284.5,60.5 286.4,60 287.8,58.4 C289.3,56.6 289.5,54 289.5,45.9 L289.5,34.3 C289.5,28.4 289.4,26 288.5,24.6 C287.2,22.7 284.5,22.6 283.7,22.6 L283.7,20.4 C283.7,20.4 288.7,20.4 294.1,19.5 C297.8,18.9 299.3,18.3 299.3,18.3 L299.9,18.7 L299.9,23.8 C299.9,23.8 303.6,18.2 313.6,18.2 C323,18.2 325.8,24.4 325.8,24.4 C325.8,24.4 329.9,18.1 340.6,18.1 C349.2,18.1 353.1,22.3 354.6,26.8 C355.4,29.2 355.5,33.1 355.5,36.1 L355.5,48.5 C355.5,55.2 355.8,56.8 357,58.3 C357.8,59.2 359.3,60.1 361.2,60.3 L361.2,62.4 C361,62.4 356.4,62.1 350.1,62.1 Z" id="Path"></path>
            </g>
            <g id="Group" transform="translate(8.000000, 83.000000)" fill="#007CBA">
                <polygon id="Path" points="0.8 0.9 17.4 0.9 17.4 4.8 5.3 4.8 5.3 13.9 16.9 13.9 16.9 17.8 5.3 17.8 5.3 32 0.8 32"></polygon>
                <polygon id="Path" points="28.7 0.9 33.2 0.9 33.2 32 28.7 32"></polygon>
                <polygon id="Path" points="46.5 0.9 52.6 0.9 66.3 26 66.4 26 66.4 0.9 70.9 0.9 70.9 32 65.2 32 51 6.4 50.9 6.4 50.9 32 46.4 32 46.4 0.9"></polygon>
                <path d="M93,0.9 L97.7,0.9 L110.9,32 L106,32 L102.8,24.1 L87.5,24.1 L84.3,32 L79.6,32 L93,0.9 Z M95.2,5.1 L89,20.5 L101.4,20.5 L95.2,5.1 Z" id="Shape"></path>
                <polygon id="Path" points="119.8 0.9 125.9 0.9 139.6 26 139.7 26 139.7 0.9 144.2 0.9 144.2 32 138.5 32 124.4 6.4 124.3 6.4 124.3 32 119.8 32"></polygon>
                <path d="M178,6 C176,4.8 173.9,4.3 171.6,4.3 C164.4,4.3 159.6,9.5 159.6,16.5 C159.6,23.8 164.9,28.7 171.3,28.7 C173.5,28.7 176.5,28.1 178.1,27.2 L178.4,31.5 C176,32.5 173.1,32.6 171.3,32.6 C161.4,32.6 154.9,26.3 154.9,16.4 C154.9,6.8 161.9,0.4 171.4,0.4 C173.8,0.4 176.2,0.8 178.4,1.7 L178,6 Z" id="Path"></path>
                <polygon id="Path" points="189.6 0.9 194.1 0.9 194.1 32 189.6 32"></polygon>
                <path d="M216.3,0.9 L221,0.9 L234.2,32 L229.3,32 L226.1,24.1 L210.8,24.1 L207.6,32 L203,32 L216.3,0.9 Z M218.5,5.1 L212.3,20.5 L224.7,20.5 L218.5,5.1 Z" id="Shape"></path>
                <polygon id="Path" points="243.1 0.9 247.6 0.9 247.6 28.1 260.6 28.1 260.6 32 243.1 32"></polygon>
            </g>
        </g>
    </g>
</svg>